<?xml version="1.0" encoding="UTF-8" standalone="no"?>
<!DOCTYPE svg PUBLIC "-//W3C//DTD SVG 1.1//EN" "http://www.w3.org/Graphics/SVG/1.1/DTD/svg11.dtd">
<svg width="72.00" height="36.36" viewBox="0.00 0.00 200.00 101.00" xmlns="http://www.w3.org/2000/svg" xmlns:xlink="http://www.w3.org/1999/xlink">
<g stroke-linecap="round" transform="translate(-844.00, -203.00)" id="Ad">
<path d="M864.56,251.51 C864.56,251.51 864.17,252.15 864.17,252.15" fill="none" stroke="rgb(0, 0, 0)" stroke-width="9.38" stroke-opacity="1.00" stroke-linejoin="round"/>
<path d="M861.16,256.67 C861.16,256.67 860.61,258.69 860.61,258.69 C861.46,255.46 867.44,238.37 868.84,235.02 C871.72,228.15 877.41,217.82 879.81,214.84 C881.46,212.85 885.51,209.63 889.02,208.19 C890.76,207.49 893.86,206.68 895.16,206.60 C896.67,206.54 898.59,207.22 899.67,208.09 C900.71,209.00 902.20,213.08 902.54,215.96 C903.08,220.89 902.80,235.19 902.61,242.14 C902.51,249.65 903.17,260.95 904.28,266.66 C905.70,273.95 908.88,283.94 911.30,288.03 C912.76,290.40 916.62,293.88 919.63,294.07 C922.56,294.20 927.55,292.04 928.79,291.25 C929.18,291.00 929.95,290.45 931.10,289.61" fill="none" stroke="rgb(0, 0, 0)" stroke-width="9.38" stroke-opacity="1.00" stroke-linejoin="round"/>
<path d="M944.67,230.90 C944.67,229.83 944.38,228.88 943.63,228.13 C941.99,226.58 936.89,226.61 933.36,227.77 C931.30,228.47 926.46,231.16 925.01,232.33 C922.54,234.37 919.35,238.01 917.97,241.01 C916.68,243.88 915.84,249.35 916.13,251.13 C916.41,252.64 918.40,254.98 919.95,255.65 C921.61,256.33 925.60,256.40 927.70,255.70 C929.79,254.97 933.48,252.38 935.11,250.46 C938.64,246.18 944.29,232.86 945.63,226.99 C946.25,224.20 947.51,218.34 948.16,215.27 C943.70,232.05 941.21,248.89 941.85,251.28 C942.17,252.42 943.16,253.72 943.80,253.89 C945.49,254.18 948.14,252.99 950.05,251.81 C950.55,251.50 951.22,251.02 952.05,250.38" fill="none" stroke="rgb(0, 0, 0)" stroke-width="9.38" stroke-opacity="1.00" stroke-linejoin="round"/>
<path d="M990.28,230.90 C990.29,229.83 989.99,228.88 989.24,228.13 C987.60,226.58 982.50,226.61 978.97,227.77 C976.91,228.47 972.07,231.16 970.62,232.33 C968.16,234.37 964.96,238.01 963.58,241.01 C962.29,243.88 961.46,249.35 961.74,251.13 C962.03,252.64 964.01,254.98 965.57,255.65 C967.22,256.33 971.22,256.40 973.32,255.70 C975.41,254.97 979.10,252.38 980.72,250.46 C984.26,246.18 989.90,232.86 991.25,226.99 C991.86,224.20 993.12,218.34 993.77,215.27 C989.31,232.05 986.83,248.89 987.46,251.28 C987.79,252.42 988.77,253.72 989.42,253.89 C991.10,254.18 993.75,252.99 995.67,251.81 C996.17,251.50 996.83,251.02 997.67,250.38" fill="none" stroke="rgb(0, 0, 0)" stroke-width="9.38" stroke-opacity="1.00" stroke-linejoin="round"/>
<path d="M1012.78,230.35 C1012.78,230.35 1013.10,229.93 1013.10,229.93 C1011.46,233.44 1010.07,237.37 1009.22,240.17 C1008.32,243.15 1007.54,247.30 1008.15,250.12 C1008.44,251.40 1010.38,253.36 1011.98,253.96 C1013.45,254.46 1017.99,253.16 1020.73,251.62 C1023.20,250.18 1027.16,247.06 1029.54,243.68 C1033.07,238.56 1034.15,233.02 1034.62,228.86 C1033.86,229.70 1034.18,234.35 1034.73,237.87 C1035.97,245.53 1038.33,260.41 1039.44,267.65 C1039.96,271.33 1040.33,276.66 1040.12,280.79 C1039.91,284.20 1038.41,288.85 1036.73,290.96 C1035.20,292.82 1029.09,297.10 1026.53,298.29 C1022.30,300.22 1013.90,301.51 1008.94,300.89 C1003.58,300.14 988.67,295.52 984.38,293.91 C978.84,291.83 967.11,286.61 962.04,283.93 C956.40,280.94 943.77,272.88 941.20,271.03 C935.24,266.63 922.62,257.31 916.35,253.33 C909.51,249.00 898.62,243.42 892.72,241.23 C889.73,240.13 882.33,238.24 879.06,237.79 C872.62,236.93 860.89,237.94 856.05,239.29 C854.30,239.79 848.83,241.85 846.50,243.72 C846.16,244.00 845.84,244.36 845.54,244.80" fill="none" stroke="rgb(0, 0, 0)" stroke-width="9.38" stroke-opacity="1.00" stroke-linejoin="round"/>
</g>
</svg>
